<svg width="50" height="50" viewBox="0 0 50 50" fill="none" xmlns="http://www.w3.org/2000/svg">
<rect width="50" height="50" rx="25" fill="white"/>
<path d="M29.7395 11.4146C28.4092 9.97842 26.5512 9.1875 24.5004 9.1875C22.4387 9.1875 20.5745 9.97363 19.2504 11.401C17.9119 12.844 17.2598 14.8053 17.4129 16.923C17.7164 21.1012 20.8958 24.5 24.5004 24.5C28.105 24.5 31.2789 21.1019 31.5872 16.9244C31.7424 14.8258 31.0861 12.8687 29.7395 11.4146ZM36.5316 39.8125H12.4691C12.1542 39.8166 11.8423 39.7504 11.5561 39.6188C11.2699 39.4872 11.0167 39.2935 10.8148 39.0517C10.3705 38.5205 10.1914 37.7952 10.324 37.0617C10.901 33.8611 12.7016 31.1726 15.5316 29.2852C18.0459 27.6097 21.2308 26.6875 24.5004 26.6875C27.77 26.6875 30.9549 27.6104 33.4691 29.2852C36.2992 31.1719 38.0998 33.8604 38.6768 37.061C38.8094 37.7945 38.6303 38.5198 38.1859 39.051C37.9841 39.2929 37.7309 39.4868 37.4448 39.6185C37.1586 39.7502 36.8467 39.8165 36.5316 39.8125Z" fill="#888192"/>
</svg>
