<svg width="24" height="24" viewBox="0 0 24 24" fill="none" xmlns="http://www.w3.org/2000/svg">
<path d="M4.93108 3.42847C4.0786 3.42847 3.26103 3.76711 2.65824 4.36991C2.05544 4.9727 1.7168 5.79027 1.7168 6.64275V16.4999C1.7168 17.3524 2.05544 18.1699 2.65824 18.7727C3.26103 19.3755 4.0786 19.7142 4.93108 19.7142H19.0705C19.923 19.7142 20.7406 19.3755 21.3434 18.7727C21.9462 18.1699 22.2848 17.3524 22.2848 16.4999V6.64275C22.2848 5.79027 21.9462 4.9727 21.3434 4.36991C20.7406 3.76711 19.923 3.42847 19.0705 3.42847H4.93108ZM3.00251 6.64275C3.00251 6.13126 3.2057 5.64072 3.56738 5.27905C3.92905 4.91737 4.41959 4.71418 4.93108 4.71418H19.0705C19.582 4.71418 20.0725 4.91737 20.4342 5.27905C20.7959 5.64072 20.9991 6.13126 20.9991 6.64275V7.31047L11.9991 11.9202L3.00251 7.31218V6.64275ZM3.00251 8.75732L11.7059 13.2145C11.7967 13.261 11.8971 13.2852 11.9991 13.2852C12.101 13.2852 12.2015 13.261 12.2922 13.2145L20.9991 8.75561V16.5008C20.9991 17.0122 20.7959 17.5028 20.4342 17.8645C20.0725 18.2261 19.582 18.4293 19.0705 18.4293H4.93194C4.42045 18.4293 3.92991 18.2261 3.56823 17.8645C3.20656 17.5028 3.00337 17.0122 3.00337 16.5008L3.00251 8.75732Z" fill="#262836"/>
</svg>
