<svg width="245" height="50" viewBox="0 0 245 50" fill="none" xmlns="http://www.w3.org/2000/svg">
<path d="M75.4188 34.811C74.4529 34.811 73.6699 34.028 73.6699 33.0622V14.7248C73.6699 14.5382 73.8212 14.387 74.0077 14.387H77.3986C77.5205 14.387 77.633 14.4527 77.6928 14.5589L84.2226 26.1393C84.3525 26.3696 84.6847 26.3682 84.8126 26.1367L91.2048 14.5615C91.2643 14.4538 91.3776 14.387 91.5005 14.387H94.7466C94.9332 14.387 95.0844 14.5382 95.0844 14.7248V33.0622C95.0844 34.028 94.3014 34.811 93.3356 34.811C92.3697 34.811 91.5867 34.028 91.5867 33.0622V22.0085C91.5867 21.6525 91.1072 21.5387 90.9471 21.8567L86.776 30.1463C86.3293 31.034 85.4205 31.5941 84.4268 31.5941C83.4409 31.5941 82.5379 31.0427 82.0875 30.1657L77.8059 21.8286C77.644 21.5132 77.1676 21.6284 77.1676 21.9829V33.0622C77.1676 34.028 76.3846 34.811 75.4188 34.811Z" fill="#454A62"/>
<path d="M102.58 24.5419C102.58 29.2932 104.688 31.6689 108.904 31.6689C113.016 31.6689 115.071 29.2932 115.071 24.5419C115.071 19.8667 113.016 17.5291 108.904 17.5291C104.688 17.5291 102.58 19.8667 102.58 24.5419ZM98.6535 24.6276C98.6535 17.7053 102.07 14.2441 108.904 14.2441C115.633 14.2441 118.997 17.7053 118.997 24.6276C118.997 31.5117 115.633 34.9538 108.904 34.9538C102.375 34.9538 98.9581 31.5117 98.6535 24.6276Z" fill="#454A62"/>
<path d="M122.918 34.811C122.732 34.811 122.581 34.6598 122.581 34.4732V14.7248C122.581 14.5382 122.732 14.387 122.918 14.387H132.146C136.029 14.387 137.971 15.9723 137.971 19.1431C137.971 21.1151 137.059 22.6104 135.234 23.6289C134.938 23.7941 134.987 24.314 135.306 24.4281C137.254 25.124 138.228 26.5712 138.228 28.7695C138.228 32.7972 136.1 34.811 131.846 34.811H122.918ZM131.689 31.526C133.364 31.526 134.202 30.6691 134.202 28.9552C134.202 26.8318 132.95 25.7702 130.447 25.7702H129.984C129.254 25.7702 128.662 25.1782 128.662 24.4479C128.662 23.8016 129.131 23.2578 129.759 23.103C132.306 22.4745 134.016 21.2355 134.016 19.3859C134.016 18.2433 133.312 17.672 131.903 17.672H126.702C126.515 17.672 126.364 17.8232 126.364 18.0098V31.1882C126.364 31.3748 126.515 31.526 126.702 31.526H131.689Z" fill="#454A62"/>
<path d="M144.666 24.5419C144.666 29.2932 146.774 31.6689 150.991 31.6689C155.102 31.6689 157.158 29.2932 157.158 24.5419C157.158 19.8667 155.102 17.5291 150.991 17.5291C146.774 17.5291 144.666 19.8667 144.666 24.5419ZM140.74 24.6276C140.74 17.7053 144.157 14.2441 150.991 14.2441C157.719 14.2441 161.084 17.7053 161.084 24.6276C161.084 31.5117 157.719 34.9538 150.991 34.9538C144.462 34.9538 141.045 31.5117 140.74 24.6276Z" fill="#454A62"/>
<path d="M166.559 14.387C167.604 14.387 168.451 15.2339 168.451 16.2786V31.1882C168.451 31.3748 168.602 31.526 168.788 31.526H176.203C177.11 31.526 177.846 32.2614 177.846 33.1685C177.846 34.0757 177.11 34.811 176.203 34.811H165.005C164.819 34.811 164.667 34.6598 164.667 34.4732V16.2786C164.667 15.2339 165.514 14.387 166.559 14.387Z" fill="#454A62"/>
<path d="M183.979 33.7028C183.706 34.3729 183.055 34.811 182.331 34.811C181.057 34.811 180.196 33.5106 180.694 32.3377L188.223 14.5928C188.276 14.468 188.398 14.387 188.534 14.387H192.157C192.292 14.387 192.414 14.4669 192.467 14.5905L200.105 32.2136C200.637 33.4408 199.737 34.811 198.4 34.811C197.65 34.811 196.973 34.3605 196.685 33.6687L193.464 25.9558L190.568 19.0408C190.452 18.7629 190.057 18.7649 189.943 19.044L183.979 33.7028Z" fill="#454A62"/>
<path d="M205.549 34.811C204.544 34.811 203.729 33.9961 203.729 32.9908V14.7248C203.729 14.5382 203.88 14.387 204.067 14.387H207.339C207.448 14.387 207.55 14.4389 207.613 14.5266L217.679 28.4252C217.871 28.6904 218.291 28.5545 218.291 28.227V14.7248C218.291 14.5382 218.442 14.387 218.628 14.387H221.593C221.78 14.387 221.931 14.5382 221.931 14.7248V32.3167C221.931 33.6943 220.814 34.811 219.437 34.811C218.628 34.811 217.87 34.4192 217.402 33.7597L207.983 20.4792C207.792 20.2106 207.369 20.3454 207.369 20.6746V32.9908C207.369 33.9961 206.554 34.811 205.549 34.811Z" fill="#454A62"/>
<path d="M234.223 31.526C238.458 31.526 240.576 29.0313 240.576 24.042C240.576 19.7953 238.458 17.672 234.223 17.672H230.349C230.163 17.672 230.011 17.8232 230.011 18.0098V31.1882C230.011 31.3748 230.163 31.526 230.349 31.526H234.223ZM226.566 34.811C226.379 34.811 226.228 34.6598 226.228 34.4732V14.7248C226.228 14.5382 226.379 14.387 226.566 14.387H234.223C240.98 14.387 244.359 17.6053 244.359 24.042C244.359 31.2213 240.98 34.811 234.223 34.811H226.566Z" fill="#454A62"/>
<path d="M54.7119 25.4814C55.4246 25.125 56.2273 25.5701 56.2275 26.3721C56.2274 39.1185 45.8911 49.37 33.2393 49.3701C27.9827 49.37 23.1709 47.6757 19.3398 44.7344C17.4694 43.3081 18.0932 40.2783 20.3203 39.6543C26.379 37.9607 32.5273 35.7319 37.0713 33.9492C42.0606 31.9882 48.8317 28.8684 54.7119 25.4814ZM59.1826 37.5498C59.5047 36.798 60.5783 36.798 60.9004 37.5498L61.4375 38.6768C61.5448 38.8913 61.7054 39.0528 61.9199 39.1602L62.8867 39.5361C63.6376 39.8586 63.6377 40.9325 62.8867 41.2549L61.9199 41.6309C61.7053 41.7383 61.5448 41.8995 61.4375 42.1143L60.9004 43.2422C60.5782 43.9934 59.505 43.9932 59.1826 43.2422L58.6455 42.1143C58.5383 41.8997 58.3775 41.7383 58.1631 41.6309L57.1963 41.2549C56.4449 40.9326 56.4449 39.8584 57.1963 39.5361L58.1631 39.1602C58.3775 39.0528 58.5382 38.8913 58.6455 38.6768L59.1826 37.5498ZM51.2607 0.431641C53.4881 -0.815852 56.25 0.788239 56.25 3.37305V7.02734C56.2501 7.65117 56.7846 8.00781 57.4082 8.00781C58.1209 7.91866 59.0124 7.74121 59.5469 7.74121C64.0904 7.47392 66.6746 8.27551 67.4766 10.2363V10.3262C70.0585 16.7441 48.7653 27.2622 37.0938 31.9863C28.7186 35.3735 14.6405 40.0087 6.44336 40.0088C3.23622 40.0087 0.919966 39.2951 0.207031 37.5127C-1.04033 34.3038 3.50327 30.2035 9.8291 26.1924C10.0963 25.925 10.2753 25.6572 10.2754 25.3008V3.37305C10.2754 0.788081 13.0372 -0.816277 15.2646 0.431641L30.4111 8.72168C32.1929 9.70193 34.3315 9.70194 36.1133 8.72168L51.2607 0.431641ZM10.7207 30.6494C10.5425 29.8472 9.82899 29.4906 9.11621 30.0254C3.41551 33.9464 2.70211 35.9963 2.87988 36.3535C2.96977 36.7102 4.75274 37.512 10.6318 36.71L11.2549 36.6211C11.9674 36.5319 12.3237 35.908 12.0566 35.2842C11.4331 33.7691 10.988 32.2536 10.7207 30.6494ZM27.0723 16.5684C26.5376 15.3207 24.7563 15.3207 24.2217 16.5684L23.3301 18.4404C23.1519 18.7969 22.8847 19.0639 22.5283 19.2422L20.9248 19.8662C19.6774 20.401 19.6775 22.1839 20.9248 22.7188L22.5283 23.3428C22.8847 23.521 23.1519 23.789 23.3301 24.1455L24.2217 26.0166C24.7563 27.2645 26.5377 27.2645 27.0723 26.0166L27.9639 24.1455C28.1421 23.789 28.4092 23.521 28.7656 23.3428L30.3691 22.7188C31.6165 22.1839 31.6165 20.401 30.3691 19.8662L28.7656 19.2422C28.4093 19.0639 28.1421 18.7969 27.9639 18.4404L27.0723 16.5684ZM46.5381 22.1807C47.1615 18.7937 44.3103 15.9416 40.9248 16.5654C39.0538 16.922 37.539 18.4377 37.1826 20.3096C36.5594 23.6965 39.4104 26.5487 42.7959 25.9248C44.6668 25.5682 46.1816 24.0524 46.5381 22.1807ZM5.35742 21.291C6.04608 21.2911 6.60523 21.8492 6.60547 22.5381C6.60535 23.2271 6.04616 23.786 5.35742 23.7861C4.66873 23.786 4.11047 23.2271 4.11035 22.5381C4.1106 21.8492 4.6688 21.2912 5.35742 21.291ZM61.3281 10.5928C60.5261 10.5928 58.3879 10.772 57.1406 10.9502C56.6062 11.0394 56.25 11.3959 56.25 11.9307V17.2783C56.2502 18.0804 57.141 18.6156 57.7646 18.1699C64.1753 13.8942 64.9805 11.6654 64.8037 11.3066C64.7146 11.1284 63.8227 10.5928 61.3281 10.5928Z" fill="url(#paint0_linear_10_1266)"/>
<path d="M54.7119 25.4814C55.4246 25.125 56.2273 25.5701 56.2275 26.3721C56.2274 39.1185 45.8911 49.37 33.2393 49.3701C27.9827 49.37 23.1709 47.6757 19.3398 44.7344C17.4694 43.3081 18.0932 40.2783 20.3203 39.6543C26.379 37.9607 32.5273 35.7319 37.0713 33.9492C42.0606 31.9882 48.8317 28.8684 54.7119 25.4814ZM59.1826 37.5498C59.5047 36.798 60.5783 36.798 60.9004 37.5498L61.4375 38.6768C61.5448 38.8913 61.7054 39.0528 61.9199 39.1602L62.8867 39.5361C63.6376 39.8586 63.6377 40.9325 62.8867 41.2549L61.9199 41.6309C61.7053 41.7383 61.5448 41.8995 61.4375 42.1143L60.9004 43.2422C60.5782 43.9934 59.505 43.9932 59.1826 43.2422L58.6455 42.1143C58.5383 41.8997 58.3775 41.7383 58.1631 41.6309L57.1963 41.2549C56.4449 40.9326 56.4449 39.8584 57.1963 39.5361L58.1631 39.1602C58.3775 39.0528 58.5382 38.8913 58.6455 38.6768L59.1826 37.5498ZM51.2607 0.431641C53.4881 -0.815852 56.25 0.788239 56.25 3.37305V7.02734C56.2501 7.65117 56.7846 8.00781 57.4082 8.00781C58.1209 7.91866 59.0124 7.74121 59.5469 7.74121C64.0904 7.47392 66.6746 8.27551 67.4766 10.2363V10.3262C70.0585 16.7441 48.7653 27.2622 37.0938 31.9863C28.7186 35.3735 14.6405 40.0087 6.44336 40.0088C3.23622 40.0087 0.919966 39.2951 0.207031 37.5127C-1.04033 34.3038 3.50327 30.2035 9.8291 26.1924C10.0963 25.925 10.2753 25.6572 10.2754 25.3008V3.37305C10.2754 0.788081 13.0372 -0.816277 15.2646 0.431641L30.4111 8.72168C32.1929 9.70193 34.3315 9.70194 36.1133 8.72168L51.2607 0.431641ZM10.7207 30.6494C10.5425 29.8472 9.82899 29.4906 9.11621 30.0254C3.41551 33.9464 2.70211 35.9963 2.87988 36.3535C2.96977 36.7102 4.75274 37.512 10.6318 36.71L11.2549 36.6211C11.9674 36.5319 12.3237 35.908 12.0566 35.2842C11.4331 33.7691 10.988 32.2536 10.7207 30.6494ZM27.0723 16.5684C26.5376 15.3207 24.7563 15.3207 24.2217 16.5684L23.3301 18.4404C23.1519 18.7969 22.8847 19.0639 22.5283 19.2422L20.9248 19.8662C19.6774 20.401 19.6775 22.1839 20.9248 22.7188L22.5283 23.3428C22.8847 23.521 23.1519 23.789 23.3301 24.1455L24.2217 26.0166C24.7563 27.2645 26.5377 27.2645 27.0723 26.0166L27.9639 24.1455C28.1421 23.789 28.4092 23.521 28.7656 23.3428L30.3691 22.7188C31.6165 22.1839 31.6165 20.401 30.3691 19.8662L28.7656 19.2422C28.4093 19.0639 28.1421 18.7969 27.9639 18.4404L27.0723 16.5684ZM46.5381 22.1807C47.1615 18.7937 44.3103 15.9416 40.9248 16.5654C39.0538 16.922 37.539 18.4377 37.1826 20.3096C36.5594 23.6965 39.4104 26.5487 42.7959 25.9248C44.6668 25.5682 46.1816 24.0524 46.5381 22.1807ZM5.35742 21.291C6.04608 21.2911 6.60523 21.8492 6.60547 22.5381C6.60535 23.2271 6.04616 23.786 5.35742 23.7861C4.66873 23.786 4.11047 23.2271 4.11035 22.5381C4.1106 21.8492 4.6688 21.2912 5.35742 21.291ZM61.3281 10.5928C60.5261 10.5928 58.3879 10.772 57.1406 10.9502C56.6062 11.0394 56.25 11.3959 56.25 11.9307V17.2783C56.2502 18.0804 57.141 18.6156 57.7646 18.1699C64.1753 13.8942 64.9805 11.6654 64.8037 11.3066C64.7146 11.1284 63.8227 10.5928 61.3281 10.5928Z" fill="url(#paint1_linear_10_1266)" fill-opacity="0.2"/>
<defs>
<linearGradient id="paint0_linear_10_1266" x1="49.0356" y1="0.312437" x2="17.5298" y2="26.0908" gradientUnits="userSpaceOnUse">
<stop stop-color="#75E3FF"/>
<stop offset="0.814713" stop-color="#BC8AFF"/>
</linearGradient>
<linearGradient id="paint1_linear_10_1266" x1="35.443" y1="45.39" x2="8.40185" y2="9.47862" gradientUnits="userSpaceOnUse">
<stop stop-color="white" stop-opacity="0"/>
<stop offset="1" stop-color="#2A00FF"/>
</linearGradient>
</defs>
</svg>
