<svg width="205" height="42" viewBox="0 0 205 42" fill="none" xmlns="http://www.w3.org/2000/svg">
<path d="M66.4383 29.7474C65.6461 29.7474 65.0039 29.1052 65.0039 28.313V13.2666C65.0039 13.1209 65.122 13.0028 65.2676 13.0028H68.07C68.1652 13.0028 68.2529 13.0541 68.2997 13.137L73.671 22.6588C73.7724 22.8386 74.0318 22.8374 74.1316 22.6567L79.3899 13.139C79.4363 13.055 79.5247 13.0028 79.6208 13.0028H82.3044C82.4501 13.0028 82.5682 13.1209 82.5682 13.2666V28.313C82.5682 29.1052 81.926 29.7474 81.1338 29.7474C80.3415 29.7474 79.6993 29.1052 79.6993 28.313V19.1952C79.6993 18.9173 79.325 18.8284 79.2 19.0767L75.7538 25.9227C75.3873 26.6507 74.6418 27.11 73.8268 27.11C73.0181 27.11 72.2774 26.6578 71.9078 25.9385L68.3711 19.0547C68.2446 18.8085 67.8727 18.8985 67.8727 19.1752V28.313C67.8727 29.1052 67.2305 29.7474 66.4383 29.7474Z" fill="#262836"/>
<path d="M88.7157 21.3283C88.7157 25.2237 90.4448 27.1713 93.903 27.1713C97.2753 27.1713 98.9615 25.2237 98.9615 21.3283C98.9615 17.4954 97.2753 15.5789 93.903 15.5789C90.4448 15.5789 88.7157 17.4954 88.7157 21.3283ZM85.4955 21.3986C85.4955 15.7233 88.298 12.8857 93.903 12.8857C99.4221 12.8857 102.182 15.7233 102.182 21.3986C102.182 27.0425 99.4221 29.8645 93.903 29.8645C88.5478 29.8645 85.7453 27.0425 85.4955 21.3986Z" fill="#262836"/>
<path d="M105.384 29.7474C105.239 29.7474 105.121 29.6294 105.121 29.4837V13.2666C105.121 13.1209 105.239 13.0028 105.384 13.0028H112.966C116.151 13.0028 117.744 14.3026 117.744 16.9021C117.744 18.5332 116.982 19.7665 115.459 20.6019C115.227 20.7292 115.265 21.133 115.515 21.2198C117.141 21.7844 117.954 22.9759 117.954 24.7943C117.954 28.0964 116.21 29.7474 112.72 29.7474H105.384ZM112.591 27.0542C113.965 27.0542 114.652 26.3517 114.652 24.9465C114.652 23.2057 113.626 22.3353 111.573 22.3353H111.192C110.594 22.3353 110.108 21.85 110.108 21.2513C110.108 20.7214 110.494 20.2756 111.008 20.1487C113.097 19.6335 114.5 18.6177 114.5 17.1012C114.5 16.1644 113.922 15.696 112.767 15.696H108.487C108.342 15.696 108.224 15.8141 108.224 15.9598V26.7905C108.224 26.9362 108.342 27.0542 108.487 27.0542H112.591Z" fill="#262836"/>
<path d="M123.235 21.3283C123.235 25.2237 124.964 27.1713 128.423 27.1713C131.795 27.1713 133.481 25.2237 133.481 21.3283C133.481 17.4954 131.795 15.5789 128.423 15.5789C124.964 15.5789 123.235 17.4954 123.235 21.3283ZM120.015 21.3986C120.015 15.7233 122.818 12.8857 128.423 12.8857C133.942 12.8857 136.701 15.7233 136.701 21.3986C136.701 27.0425 133.942 29.8645 128.423 29.8645C123.067 29.8645 120.265 27.0425 120.015 21.3986Z" fill="#262836"/>
<path d="M141.192 13.0028C142.049 13.0028 142.743 13.6975 142.743 14.5543V26.7905C142.743 26.9362 142.861 27.0542 143.007 27.0542H149.103C149.846 27.0542 150.449 27.6571 150.449 28.4008C150.449 29.1445 149.846 29.7474 149.103 29.7474H139.904C139.758 29.7474 139.64 29.6294 139.64 29.4837V14.5543C139.64 13.6975 140.335 13.0028 141.192 13.0028Z" fill="#262836"/>
<path d="M155.48 28.8387C155.256 29.3882 154.722 29.7474 154.129 29.7474C153.084 29.7474 152.377 28.6807 152.786 27.7188L158.964 13.1635C159.006 13.0661 159.101 13.0028 159.207 13.0028H162.196C162.302 13.0028 162.397 13.0652 162.438 13.1617L168.706 27.617C169.142 28.6234 168.404 29.7474 167.307 29.7474C166.693 29.7474 166.138 29.3781 165.901 28.8108L163.259 22.4875L160.872 16.7885C160.781 16.5715 160.473 16.5731 160.384 16.791L155.48 28.8387Z" fill="#262836"/>
<path d="M173.172 29.7474C172.347 29.7474 171.679 29.079 171.679 28.2545V13.2666C171.679 13.1209 171.797 13.0028 171.942 13.0028H174.647C174.732 13.0028 174.811 13.0434 174.861 13.1118L183.145 24.5454C183.295 24.7524 183.622 24.6463 183.622 24.3906V13.2666C183.622 13.1209 183.74 13.0028 183.886 13.0028H186.345C186.49 13.0028 186.608 13.1209 186.608 13.2666V27.7014C186.608 28.8314 185.692 29.7474 184.562 29.7474C183.899 29.7474 183.277 29.4262 182.894 28.8854L175.143 17.9633C174.995 17.7537 174.665 17.8589 174.665 18.1159V28.2545C174.665 29.079 173.996 29.7474 173.172 29.7474Z" fill="#262836"/>
<path d="M196.69 27.0542C200.164 27.0542 201.901 25.009 201.901 20.9185C201.901 17.4368 200.164 15.696 196.69 15.696H193.5C193.354 15.696 193.236 15.8141 193.236 15.9598V26.7905C193.236 26.9362 193.354 27.0542 193.5 27.0542H196.69ZM190.397 29.7474C190.251 29.7474 190.133 29.6294 190.133 29.4837V13.2666C190.133 13.1209 190.251 13.0028 190.397 13.0028H196.69C202.233 13.0028 205.004 15.6414 205.004 20.9185C205.004 26.8044 202.233 29.7474 196.69 29.7474H190.397Z" fill="#262836"/>
<path d="M45.9102 21.3608C46.5078 21.0622 47.1804 21.4356 47.1807 22.1079C47.1807 32.7944 38.5121 41.3889 27.9004 41.3892C23.4912 41.3892 19.4557 39.9686 16.2422 37.5024C14.6729 36.3067 15.1962 33.7658 17.0645 33.2427C22.1458 31.8228 27.3022 29.955 31.1133 28.4604C35.2981 26.8164 40.978 24.2005 45.9102 21.3608ZM49.6553 31.478C49.9257 30.8484 50.8255 30.8483 51.0957 31.478L51.5459 32.4233C51.6359 32.6034 51.7711 32.7386 51.9512 32.8286L52.7617 33.144C53.3917 33.4142 53.3915 34.3141 52.7617 34.5845L51.9512 34.8999C51.7712 34.9899 51.6359 35.1252 51.5459 35.3052L51.0957 36.2505C50.8256 36.8808 49.9254 36.8808 49.6553 36.2505L49.2051 35.3052C49.1151 35.1252 48.9798 34.9899 48.7998 34.8999L47.9893 34.5845C47.359 34.3143 47.3589 33.4142 47.9893 33.144L48.7998 32.8286C48.9796 32.7386 49.1151 32.6032 49.2051 32.4233L49.6553 31.478ZM42.9951 0.361816C44.8633 -0.684127 47.1805 0.660678 47.1807 2.82764V5.89111C47.1807 6.41424 47.6292 6.71338 48.1523 6.71338C48.75 6.63864 49.497 6.4898 49.9453 6.48975C53.7561 6.26561 55.9239 6.93786 56.5967 8.58154V8.65674C58.7638 14.0374 40.9032 22.8561 31.1133 26.8169C24.0885 29.6567 12.2806 33.5424 5.40527 33.5425C2.71503 33.5425 0.771668 32.9443 0.173828 31.4497C-0.871807 28.7594 2.93947 25.3212 8.24512 21.9585C8.46911 21.7344 8.61914 21.5102 8.61914 21.2114V2.82764C8.61934 0.660583 10.9355 -0.684382 12.8037 0.361816L25.5078 7.31104C27.0024 8.13308 28.7964 8.13308 30.291 7.31104L42.9951 0.361816ZM8.99219 25.6958C8.84266 25.0235 8.24515 24.7243 7.64746 25.1724C2.86715 28.4588 2.26742 30.1778 2.41602 30.478C2.49075 30.777 3.98568 31.4494 8.91797 30.7769L9.44141 30.7026C10.0389 30.6276 10.3374 30.1045 10.1133 29.5815C9.59025 28.3113 9.21637 27.0408 8.99219 25.6958ZM22.7422 13.8882C22.2938 12.8421 20.8 12.8421 20.3516 13.8882L19.6035 15.4575C19.4541 15.7563 19.2304 15.9809 18.9316 16.1304L17.5859 16.6528C16.5398 17.1012 16.5399 18.5959 17.5859 19.0444L18.9316 19.5679C19.2304 19.7173 19.4541 19.9419 19.6035 20.2407L20.3516 21.8101C20.8001 22.8557 22.2936 22.8557 22.7422 21.8101L23.4902 20.2407C23.6396 19.9419 23.8634 19.7173 24.1621 19.5679L25.5078 19.0444C26.5538 18.5959 26.554 17.1012 25.5078 16.6528L24.1621 16.1304C23.8633 15.9809 23.6397 15.7563 23.4902 15.4575L22.7422 13.8882ZM39.0352 18.5962C39.558 15.7566 37.1658 13.3652 34.3262 13.8882C32.7571 14.1873 31.4865 15.4578 31.1875 17.0269C30.6646 19.8664 33.056 22.2576 35.8955 21.7349C37.4647 21.4359 38.7362 20.1654 39.0352 18.5962ZM4.50977 17.8481C5.08726 17.8482 5.55623 18.3166 5.55664 18.894C5.55664 19.4718 5.08752 19.9408 4.50977 19.9409C3.93201 19.9408 3.46387 19.4718 3.46387 18.894C3.46428 18.3166 3.93226 17.8482 4.50977 17.8481ZM51.4404 8.88135C50.7679 8.88135 48.974 9.03072 47.9277 9.18018C47.4796 9.25491 47.181 9.55349 47.1807 10.0015V14.4858C47.1807 15.1584 47.9281 15.6066 48.4512 15.2329C53.8307 11.6465 54.5037 9.77831 54.3545 9.479C54.2793 9.32939 53.5319 8.8814 51.4404 8.88135Z" fill="url(#paint0_linear_14935_7005)"/>
<path d="M45.9102 21.3608C46.5078 21.0622 47.1804 21.4356 47.1807 22.1079C47.1807 32.7944 38.5121 41.3889 27.9004 41.3892C23.4912 41.3892 19.4557 39.9686 16.2422 37.5024C14.6729 36.3067 15.1962 33.7658 17.0645 33.2427C22.1458 31.8228 27.3022 29.955 31.1133 28.4604C35.2981 26.8164 40.978 24.2005 45.9102 21.3608ZM49.6553 31.478C49.9257 30.8484 50.8255 30.8483 51.0957 31.478L51.5459 32.4233C51.6359 32.6034 51.7711 32.7386 51.9512 32.8286L52.7617 33.144C53.3917 33.4142 53.3915 34.3141 52.7617 34.5845L51.9512 34.8999C51.7712 34.9899 51.6359 35.1252 51.5459 35.3052L51.0957 36.2505C50.8256 36.8808 49.9254 36.8808 49.6553 36.2505L49.2051 35.3052C49.1151 35.1252 48.9798 34.9899 48.7998 34.8999L47.9893 34.5845C47.359 34.3143 47.3589 33.4142 47.9893 33.144L48.7998 32.8286C48.9796 32.7386 49.1151 32.6032 49.2051 32.4233L49.6553 31.478ZM42.9951 0.361816C44.8633 -0.684127 47.1805 0.660678 47.1807 2.82764V5.89111C47.1807 6.41424 47.6292 6.71338 48.1523 6.71338C48.75 6.63864 49.497 6.4898 49.9453 6.48975C53.7561 6.26561 55.9239 6.93786 56.5967 8.58154V8.65674C58.7638 14.0374 40.9032 22.8561 31.1133 26.8169C24.0885 29.6567 12.2806 33.5424 5.40527 33.5425C2.71503 33.5425 0.771668 32.9443 0.173828 31.4497C-0.871807 28.7594 2.93947 25.3212 8.24512 21.9585C8.46911 21.7344 8.61914 21.5102 8.61914 21.2114V2.82764C8.61934 0.660583 10.9355 -0.684382 12.8037 0.361816L25.5078 7.31104C27.0024 8.13308 28.7964 8.13308 30.291 7.31104L42.9951 0.361816ZM8.99219 25.6958C8.84266 25.0235 8.24515 24.7243 7.64746 25.1724C2.86715 28.4588 2.26742 30.1778 2.41602 30.478C2.49075 30.777 3.98568 31.4494 8.91797 30.7769L9.44141 30.7026C10.0389 30.6276 10.3374 30.1045 10.1133 29.5815C9.59025 28.3113 9.21637 27.0408 8.99219 25.6958ZM22.7422 13.8882C22.2938 12.8421 20.8 12.8421 20.3516 13.8882L19.6035 15.4575C19.4541 15.7563 19.2304 15.9809 18.9316 16.1304L17.5859 16.6528C16.5398 17.1012 16.5399 18.5959 17.5859 19.0444L18.9316 19.5679C19.2304 19.7173 19.4541 19.9419 19.6035 20.2407L20.3516 21.8101C20.8001 22.8557 22.2936 22.8557 22.7422 21.8101L23.4902 20.2407C23.6396 19.9419 23.8634 19.7173 24.1621 19.5679L25.5078 19.0444C26.5538 18.5959 26.554 17.1012 25.5078 16.6528L24.1621 16.1304C23.8633 15.9809 23.6397 15.7563 23.4902 15.4575L22.7422 13.8882ZM39.0352 18.5962C39.558 15.7566 37.1658 13.3652 34.3262 13.8882C32.7571 14.1873 31.4865 15.4578 31.1875 17.0269C30.6646 19.8664 33.056 22.2576 35.8955 21.7349C37.4647 21.4359 38.7362 20.1654 39.0352 18.5962ZM4.50977 17.8481C5.08726 17.8482 5.55623 18.3166 5.55664 18.894C5.55664 19.4718 5.08752 19.9408 4.50977 19.9409C3.93201 19.9408 3.46387 19.4718 3.46387 18.894C3.46428 18.3166 3.93226 17.8482 4.50977 17.8481ZM51.4404 8.88135C50.7679 8.88135 48.974 9.03072 47.9277 9.18018C47.4796 9.25491 47.181 9.55349 47.1807 10.0015V14.4858C47.1807 15.1584 47.9281 15.6066 48.4512 15.2329C53.8307 11.6465 54.5037 9.77831 54.3545 9.479C54.2793 9.32939 53.5319 8.8814 51.4404 8.88135Z" fill="url(#paint1_linear_14935_7005)" fill-opacity="0.2"/>
<defs>
<linearGradient id="paint0_linear_14935_7005" x1="41.1291" y1="0.262419" x2="14.7137" y2="21.8863" gradientUnits="userSpaceOnUse">
<stop stop-color="#75E3FF"/>
<stop offset="0.814713" stop-color="#BC8AFF"/>
</linearGradient>
<linearGradient id="paint1_linear_14935_7005" x1="29.7282" y1="38.053" x2="7.06136" y2="7.93614" gradientUnits="userSpaceOnUse">
<stop stop-color="white" stop-opacity="0"/>
<stop offset="1" stop-color="#2A00FF"/>
</linearGradient>
</defs>
</svg>
