<svg width="57" height="42" viewBox="0 0 57 42" fill="none" xmlns="http://www.w3.org/2000/svg">
<path d="M45.9102 21.3608C46.5078 21.0622 47.1804 21.4356 47.1807 22.1079C47.1807 32.7944 38.5121 41.3889 27.9004 41.3892C23.4912 41.3892 19.4557 39.9686 16.2422 37.5024C14.6729 36.3067 15.1962 33.7658 17.0645 33.2427C22.1458 31.8228 27.3022 29.955 31.1133 28.4604C35.2981 26.8164 40.978 24.2005 45.9102 21.3608ZM49.6553 31.478C49.9257 30.8484 50.8255 30.8483 51.0957 31.478L51.5459 32.4233C51.6359 32.6034 51.7711 32.7386 51.9512 32.8286L52.7617 33.144C53.3917 33.4142 53.3915 34.3141 52.7617 34.5845L51.9512 34.8999C51.7712 34.9899 51.6359 35.1252 51.5459 35.3052L51.0957 36.2505C50.8256 36.8808 49.9254 36.8808 49.6553 36.2505L49.2051 35.3052C49.1151 35.1252 48.9798 34.9899 48.7998 34.8999L47.9893 34.5845C47.359 34.3143 47.3589 33.4142 47.9893 33.144L48.7998 32.8286C48.9796 32.7386 49.1151 32.6032 49.2051 32.4233L49.6553 31.478ZM42.9951 0.361816C44.8633 -0.684127 47.1805 0.660678 47.1807 2.82764V5.89111C47.1807 6.41424 47.6292 6.71338 48.1523 6.71338C48.75 6.63864 49.497 6.4898 49.9453 6.48975C53.7561 6.26561 55.9239 6.93786 56.5967 8.58154V8.65674C58.7638 14.0374 40.9032 22.8561 31.1133 26.8169C24.0885 29.6567 12.2806 33.5424 5.40527 33.5425C2.71503 33.5425 0.771668 32.9443 0.173828 31.4497C-0.871807 28.7594 2.93947 25.3212 8.24512 21.9585C8.46911 21.7344 8.61914 21.5102 8.61914 21.2114V2.82764C8.61934 0.660583 10.9355 -0.684382 12.8037 0.361816L25.5078 7.31104C27.0024 8.13308 28.7964 8.13308 30.291 7.31104L42.9951 0.361816ZM8.99219 25.6958C8.84266 25.0235 8.24515 24.7243 7.64746 25.1724C2.86715 28.4588 2.26742 30.1778 2.41602 30.478C2.49075 30.777 3.98568 31.4494 8.91797 30.7769L9.44141 30.7026C10.0389 30.6276 10.3374 30.1045 10.1133 29.5815C9.59025 28.3113 9.21637 27.0408 8.99219 25.6958ZM22.7422 13.8882C22.2938 12.8421 20.8 12.8421 20.3516 13.8882L19.6035 15.4575C19.4541 15.7563 19.2304 15.9809 18.9316 16.1304L17.5859 16.6528C16.5398 17.1012 16.5399 18.5959 17.5859 19.0444L18.9316 19.5679C19.2304 19.7173 19.4541 19.9419 19.6035 20.2407L20.3516 21.8101C20.8001 22.8557 22.2936 22.8557 22.7422 21.8101L23.4902 20.2407C23.6396 19.9419 23.8634 19.7173 24.1621 19.5679L25.5078 19.0444C26.5538 18.5959 26.554 17.1012 25.5078 16.6528L24.1621 16.1304C23.8633 15.9809 23.6397 15.7563 23.4902 15.4575L22.7422 13.8882ZM39.0352 18.5962C39.558 15.7566 37.1658 13.3652 34.3262 13.8882C32.7571 14.1873 31.4865 15.4578 31.1875 17.0269C30.6646 19.8664 33.056 22.2576 35.8955 21.7349C37.4647 21.4359 38.7362 20.1654 39.0352 18.5962ZM4.50977 17.8481C5.08726 17.8482 5.55623 18.3166 5.55664 18.894C5.55664 19.4718 5.08752 19.9408 4.50977 19.9409C3.93201 19.9408 3.46387 19.4718 3.46387 18.894C3.46428 18.3166 3.93226 17.8482 4.50977 17.8481ZM51.4404 8.88135C50.7679 8.88135 48.974 9.03072 47.9277 9.18018C47.4796 9.25491 47.181 9.55349 47.1807 10.0015V14.4858C47.1807 15.1584 47.9281 15.6066 48.4512 15.2329C53.8307 11.6465 54.5037 9.77831 54.3545 9.479C54.2793 9.32939 53.5319 8.8814 51.4404 8.88135Z" fill="url(#paint0_linear_14935_7007)"/>
<path d="M45.9102 21.3608C46.5078 21.0622 47.1804 21.4356 47.1807 22.1079C47.1807 32.7944 38.5121 41.3889 27.9004 41.3892C23.4912 41.3892 19.4557 39.9686 16.2422 37.5024C14.6729 36.3067 15.1962 33.7658 17.0645 33.2427C22.1458 31.8228 27.3022 29.955 31.1133 28.4604C35.2981 26.8164 40.978 24.2005 45.9102 21.3608ZM49.6553 31.478C49.9257 30.8484 50.8255 30.8483 51.0957 31.478L51.5459 32.4233C51.6359 32.6034 51.7711 32.7386 51.9512 32.8286L52.7617 33.144C53.3917 33.4142 53.3915 34.3141 52.7617 34.5845L51.9512 34.8999C51.7712 34.9899 51.6359 35.1252 51.5459 35.3052L51.0957 36.2505C50.8256 36.8808 49.9254 36.8808 49.6553 36.2505L49.2051 35.3052C49.1151 35.1252 48.9798 34.9899 48.7998 34.8999L47.9893 34.5845C47.359 34.3143 47.3589 33.4142 47.9893 33.144L48.7998 32.8286C48.9796 32.7386 49.1151 32.6032 49.2051 32.4233L49.6553 31.478ZM42.9951 0.361816C44.8633 -0.684127 47.1805 0.660678 47.1807 2.82764V5.89111C47.1807 6.41424 47.6292 6.71338 48.1523 6.71338C48.75 6.63864 49.497 6.4898 49.9453 6.48975C53.7561 6.26561 55.9239 6.93786 56.5967 8.58154V8.65674C58.7638 14.0374 40.9032 22.8561 31.1133 26.8169C24.0885 29.6567 12.2806 33.5424 5.40527 33.5425C2.71503 33.5425 0.771668 32.9443 0.173828 31.4497C-0.871807 28.7594 2.93947 25.3212 8.24512 21.9585C8.46911 21.7344 8.61914 21.5102 8.61914 21.2114V2.82764C8.61934 0.660583 10.9355 -0.684382 12.8037 0.361816L25.5078 7.31104C27.0024 8.13308 28.7964 8.13308 30.291 7.31104L42.9951 0.361816ZM8.99219 25.6958C8.84266 25.0235 8.24515 24.7243 7.64746 25.1724C2.86715 28.4588 2.26742 30.1778 2.41602 30.478C2.49075 30.777 3.98568 31.4494 8.91797 30.7769L9.44141 30.7026C10.0389 30.6276 10.3374 30.1045 10.1133 29.5815C9.59025 28.3113 9.21637 27.0408 8.99219 25.6958ZM22.7422 13.8882C22.2938 12.8421 20.8 12.8421 20.3516 13.8882L19.6035 15.4575C19.4541 15.7563 19.2304 15.9809 18.9316 16.1304L17.5859 16.6528C16.5398 17.1012 16.5399 18.5959 17.5859 19.0444L18.9316 19.5679C19.2304 19.7173 19.4541 19.9419 19.6035 20.2407L20.3516 21.8101C20.8001 22.8557 22.2936 22.8557 22.7422 21.8101L23.4902 20.2407C23.6396 19.9419 23.8634 19.7173 24.1621 19.5679L25.5078 19.0444C26.5538 18.5959 26.554 17.1012 25.5078 16.6528L24.1621 16.1304C23.8633 15.9809 23.6397 15.7563 23.4902 15.4575L22.7422 13.8882ZM39.0352 18.5962C39.558 15.7566 37.1658 13.3652 34.3262 13.8882C32.7571 14.1873 31.4865 15.4578 31.1875 17.0269C30.6646 19.8664 33.056 22.2576 35.8955 21.7349C37.4647 21.4359 38.7362 20.1654 39.0352 18.5962ZM4.50977 17.8481C5.08726 17.8482 5.55623 18.3166 5.55664 18.894C5.55664 19.4718 5.08752 19.9408 4.50977 19.9409C3.93201 19.9408 3.46387 19.4718 3.46387 18.894C3.46428 18.3166 3.93226 17.8482 4.50977 17.8481ZM51.4404 8.88135C50.7679 8.88135 48.974 9.03072 47.9277 9.18018C47.4796 9.25491 47.181 9.55349 47.1807 10.0015V14.4858C47.1807 15.1584 47.9281 15.6066 48.4512 15.2329C53.8307 11.6465 54.5037 9.77831 54.3545 9.479C54.2793 9.32939 53.5319 8.8814 51.4404 8.88135Z" fill="url(#paint1_linear_14935_7007)" fill-opacity="0.2"/>
<defs>
<linearGradient id="paint0_linear_14935_7007" x1="41.1291" y1="0.262419" x2="14.7137" y2="21.8863" gradientUnits="userSpaceOnUse">
<stop stop-color="#75E3FF"/>
<stop offset="0.814713" stop-color="#BC8AFF"/>
</linearGradient>
<linearGradient id="paint1_linear_14935_7007" x1="29.7282" y1="38.053" x2="7.06136" y2="7.93614" gradientUnits="userSpaceOnUse">
<stop stop-color="white" stop-opacity="0"/>
<stop offset="1" stop-color="#2A00FF"/>
</linearGradient>
</defs>
</svg>
